<?xml version="1.0" encoding="UTF-8"?>
<svg id="Layer_2" data-name="Layer 2" xmlns="http://www.w3.org/2000/svg" viewBox="0 0 512 512">
  <defs>
    <style>
      .cls-1 {
        fill: #f58320;
      }

      .cls-2 {
        fill: #2e3d76;
      }
    </style>
  </defs>
  <g id="Layer_1-2" data-name="Layer 1">
    <g>
      <polygon class="cls-1" points="324.35 294.42 324.35 430.32 512 335.14 512 389.6 270.66 512 270.66 267.19 512 144.78 512 199.24 324.35 294.42"/>
      <polygon class="cls-2" points="241.42 267.19 241.42 512 .09 389.6 .09 144.78 53.77 172.01 53.77 362.36 187.74 430.32 187.74 239.96 241.42 267.19"/>
      <polygon class="cls-1" points="197.6 129.77 182.2 122.4 255.96 87.14 307.62 111.84 329.71 122.4 255.96 157.68 197.6 129.77"/>
      <polygon class="cls-2" points="255.96 190.35 312.89 217.59 255.96 244.82 0 122.4 164.86 43.57 221.79 70.79 113.87 122.4 190.96 159.27 190.96 159.28 255.96 190.35"/>
      <polygon class="cls-2" points="511.91 122.4 347.06 201.25 290.12 174.02 398.04 122.4 332.95 91.28 255.95 54.45 199.02 27.23 255.96 0 511.91 122.4"/>
    </g>
  </g>
</svg>